<?xml version="1.0" encoding="utf-8"?>
<!-- Generator: Adobe Illustrator 16.0.0, SVG Export Plug-In . SVG Version: 6.00 Build 0)  -->
<!DOCTYPE svg PUBLIC "-//W3C//DTD SVG 1.1//EN" "http://www.w3.org/Graphics/SVG/1.1/DTD/svg11.dtd">
<svg version="1.1" id="Calque_1" xmlns="http://www.w3.org/2000/svg" xmlns:xlink="http://www.w3.org/1999/xlink" x="0px" y="0px"
	 width="1280px" height="720px" viewBox="0 0 1280 720" enable-background="new 0 0 1280 720" xml:space="preserve">
<g>
	<path fill="#E53428" d="M72.184,315.62h33.465c19.544,0,31.362,11.585,31.362,28.319v0.233c0,18.957-14.743,28.785-33.117,28.785
		h-13.69v24.574H72.184V315.62z M104.483,356.93c9.01,0,14.272-5.386,14.272-12.407v-0.232c0-8.075-5.615-12.403-14.626-12.403
		H90.205v25.043H104.483z"/>
	<path fill="#E53428" d="M150.809,356.812v-0.235c0-23.286,18.374-42.36,43.646-42.36c25.277,0,43.416,18.84,43.416,42.128v0.232
		c0,23.288-18.375,42.36-43.647,42.36C168.947,398.937,150.809,380.097,150.809,356.812 M219.032,356.812v-0.235
		c0-14.043-10.298-25.743-24.808-25.743c-14.512,0-24.577,11.469-24.577,25.511v0.232c0,14.043,10.299,25.745,24.808,25.745
		C208.968,382.321,219.032,370.854,219.032,356.812"/>
	<polygon fill="#E53428" points="257.984,315.62 276.006,315.62 276.006,381.15 316.846,381.15 316.846,397.532 257.984,397.532 	
		"/>
	<polygon fill="#E53428" points="342.363,365.236 310.883,315.62 331.945,315.62 351.49,348.502 371.383,315.62 391.859,315.62 
		360.383,364.886 360.383,397.532 342.363,397.532 	"/>
	<path fill="#E53428" d="M407.176,315.62h33.469c19.541,0,31.359,11.585,31.359,28.319v0.233c0,18.957-14.744,28.785-33.113,28.785
		h-13.693v24.574h-18.021V315.62z M439.475,356.93c9.01,0,14.277-5.386,14.277-12.407v-0.232c0-8.075-5.619-12.403-14.631-12.403
		h-13.924v25.043H439.475z"/>
	<polygon fill="#E53428" points="508.506,332.236 483.58,332.236 483.58,315.62 551.451,315.62 551.451,332.236 526.527,332.236 
		526.527,397.532 508.506,397.532 	"/>
	<polygon fill="#E53428" points="592.398,365.236 560.918,315.62 581.982,315.62 601.525,348.502 621.42,315.62 641.895,315.62 
		610.42,364.886 610.42,397.532 592.398,397.532 	"/>
	<path fill="#E53428" d="M714.312,391.918c-6.902,4.445-15.213,7.019-24.336,7.019c-25.277,0-43.416-18.84-43.416-42.125v-0.235
		c0-23.286,18.373-42.36,43.646-42.36c25.277,0,43.416,18.84,43.416,42.127v0.233c0,8.543-2.578,16.734-7.258,23.521l8.428,7.139
		l-11.469,12.754L714.312,391.918z M700.977,380.097l-13.342-11.35l11.465-12.872l13.459,12.169
		c1.52-3.393,2.225-7.137,2.225-11.232v-0.235c0-14.043-10.299-25.743-24.807-25.743c-14.514,0-24.576,11.469-24.576,25.51v0.233
		c0,14.043,10.299,25.745,24.807,25.745C694.186,382.321,697.814,381.5,700.977,380.097"/>
	<path fill="#E53428" d="M752.447,362.428V315.62h18.021v46.341c0,13.339,6.668,20.242,17.668,20.242s17.672-6.67,17.672-19.659
		V315.62h18.021v46.224c0,24.807-13.924,36.978-35.924,36.978S752.447,386.533,752.447,362.428"/>
	<polygon fill="#E53428" points="846.287,315.62 908.072,315.62 908.072,331.652 864.189,331.652 864.189,348.269 902.805,348.269 
		902.805,364.3 864.189,364.3 864.189,381.5 908.654,381.5 908.654,397.532 846.287,397.532 	"/>
	<path fill="#E53428" d="M1139.174,86.911V6.191L945.68,86.165L752.184,6.191v80.72h-68.641v186.273h18.18V105.089h50.461v61.049
		v107.047h18.182v-94.891l175.314-72.459l175.314,72.459v363.412l-175.314,72.46l-175.314-72.46V439.968h-18.182v113.895v61.05
		h-50.461V439.968h-18.18V633.09h68.641v80.719l193.496-79.973l193.494,79.973V633.09h68.643V86.911H1139.174z M770.365,158.623
		v-53.534h129.525L770.365,158.623z M770.365,86.911V33.376l129.527,53.535H770.365z M770.365,686.624V633.09h129.525
		L770.365,686.624z M770.365,614.912v-53.534l129.527,53.534H770.365z M1120.994,686.624L991.469,633.09h129.525V686.624z
		 M1120.994,614.912H991.467l129.527-53.534V614.912z M1120.994,158.623l-129.527-53.534h129.527V158.623z M1120.994,86.911H991.467
		l129.527-53.535V86.911z M1189.635,614.912h-50.461v-61.05V166.138v-61.049h50.461V614.912z"/>
</g>
</svg>
